<svg xmlns="http://www.w3.org/2000/svg" viewBox="0 0 100 100" fill="none">
  <defs>
    <linearGradient id="dinoGrad" x1="0%" y1="0%" x2="100%" y2="100%">
      <stop offset="0%" style="stop-color:#4CAF50"/>
      <stop offset="100%" style="stop-color:#2E7D32"/>
    </linearGradient>
  </defs>
  <path d="M75 25c0-5-4-9-9-9h-6c-3 0-6 2-7 5l-3 8H35c-8 0-15 7-15 15v20c0 6 5 11 11 11h4l2 15c0 2 2 4 4 4h6c2 0 4-2 4-4l-1-15h10l-1 15c0 2 2 4 4 4h6c2 0 4-2 4-4l2-15h4c6 0 11-5 11-11V44c0-8-7-15-15-15h-5l3-8c1-2 2-4 2-6z" fill="url(#dinoGrad)"/>
  <circle cx="62" cy="28" r="3" fill="#fff"/>
  <circle cx="62" cy="28" r="1.5" fill="#333"/>
  <path d="M70 35c2 0 4 1 4 3s-2 3-4 3" stroke="#2E7D32" stroke-width="2" fill="none"/>
  <path d="M25 50h-8c-2 0-3-1-3-3s1-3 3-3h8" fill="url(#dinoGrad)"/>
  <path d="M25 60h-6c-2 0-3-1-3-3s1-3 3-3h6" fill="url(#dinoGrad)"/>
</svg>
